<?xml version="1.0" standalone="no"?>
<!DOCTYPE svg PUBLIC "-//W3C//DTD SVG 20010904//EN"
 "http://www.w3.org/TR/2001/REC-SVG-20010904/DTD/svg10.dtd">
<svg version="1.0" xmlns="http://www.w3.org/2000/svg"
 width="404.000000pt" height="404.000000pt" viewBox="0 0 404.000000 404.000000"
 preserveAspectRatio="xMidYMid meet">
<metadata>
Created by potrace 1.11, written by Peter Selinger 2001-2013
</metadata>
<g transform="translate(0.000000,404.000000) scale(0.100000,-0.100000)"
fill="#000000" stroke="none">
<path d="M0 2613 l0 -1426 25 23 c18 17 25 19 26 9 3 -46 -5 -90 -27 -138 -23
-51 -24 -64 -24 -245 l0 -192 43 -41 c78 -76 197 -114 294 -93 97 21 205 64
213 85 4 12 15 27 24 34 28 23 7 30 -33 11 -25 -13 -66 -20 -117 -22 -71 -3
-86 0 -146 29 -38 18 -68 34 -68 37 0 2 28 23 61 46 51 35 74 44 133 51 39 6
88 16 109 24 60 24 93 19 118 -14 18 -25 100 -71 124 -71 4 0 -16 23 -44 52
-28 28 -49 54 -46 56 2 3 11 -1 20 -8 13 -11 24 -7 67 20 32 19 75 35 111 41
115 19 155 47 253 177 61 80 82 88 142 52 19 -12 32 -15 32 -8 0 6 8 4 18 -5
13 -12 36 -17 73 -17 30 0 83 -10 118 -21 77 -26 123 -17 168 34 16 17 36 38
45 45 15 12 16 11 12 -14 -3 -16 -21 -53 -40 -84 -83 -131 -101 -160 -153
-241 -31 -47 -72 -112 -91 -143 -19 -32 -59 -95 -87 -141 -29 -47 -53 -90 -53
-97 0 -7 -12 -24 -27 -38 -43 -41 -190 -243 -266 -367 -6 -10 17 -13 103 -13
72 0 109 4 105 10 -3 5 -2 10 4 10 5 0 13 -4 16 -10 4 -6 57 -10 128 -9 l122
1 -50 18 -50 18 78 1 c73 1 100 13 60 28 -10 3 -27 13 -37 22 -14 11 -17 12
-11 2 6 -10 4 -12 -4 -7 -7 4 -10 13 -8 19 2 7 -2 28 -10 47 l-14 35 28 -31
c15 -18 47 -39 71 -48 55 -21 54 -14 -2 14 -51 24 -71 54 -30 44 14 -4 44 -7
67 -8 25 -1 54 -10 72 -22 46 -33 112 -64 140 -66 30 -3 29 -2 9 -23 -23 -23
-1 -45 45 -44 l36 1 -32 9 c-18 5 -33 11 -33 12 0 1 64 1 142 0 l143 -1 -127
11 c-69 7 -129 15 -132 18 -3 3 1 14 9 25 12 16 14 17 15 3 0 -9 7 -19 14 -22
11 -4 13 -1 10 11 -5 15 -4 15 9 -1 20 -24 51 -13 35 13 -6 10 -17 16 -24 13
-6 -2 -15 1 -20 8 -4 8 -3 10 5 5 6 -4 3 7 -9 26 -21 35 -27 93 -10 103 5 3
10 -3 10 -14 0 -26 57 -44 125 -39 l50 4 -61 2 c-34 1 -68 8 -80 17 -18 13
-18 14 6 9 20 -5 22 -3 10 5 -13 10 -13 12 0 21 8 5 24 7 35 4 16 -4 17 -3 5
5 -12 9 -9 11 15 11 23 0 27 -3 15 -10 -9 -6 -10 -10 -3 -10 6 0 15 4 18 10 3
6 13 6 23 1 52 -26 71 -33 81 -26 7 3 10 1 9 -6 -2 -8 7 -14 24 -14 14 0 29
-3 33 -7 4 -4 -16 -5 -44 -2 -50 5 -52 4 -41 -16 6 -11 21 -21 33 -21 12 -1
32 -3 45 -4 29 -3 29 12 0 18 -21 4 -21 4 3 6 14 0 31 -5 38 -12 10 -8 12 -8
7 0 -4 8 7 13 36 15 58 4 208 -7 232 -17 12 -5 17 -5 13 1 -3 6 18 8 56 6 34
-2 80 1 102 5 31 7 -5 11 -150 15 -104 4 -199 10 -209 14 -14 6 -17 4 -11 -6
5 -8 3 -11 -6 -7 -8 3 -40 11 -71 18 -32 7 -58 16 -58 19 0 14 79 32 139 32
51 0 60 1 38 8 -16 5 -35 15 -44 22 -9 7 -19 13 -22 12 -22 -3 -38 10 -34 27
4 14 0 19 -16 19 -24 0 -63 38 -86 82 -13 28 -13 29 3 17 9 -8 23 -20 30 -27
17 -15 22 -15 67 4 28 11 44 13 66 5 18 -6 27 -6 24 -1 -4 6 3 10 15 10 12 0
19 -4 16 -9 -4 -5 0 -12 6 -14 7 -3 1 -6 -14 -6 -16 -1 -28 -5 -28 -10 0 -5
-8 -7 -18 -4 -10 2 -34 0 -53 -5 l-34 -10 35 -2 c19 -1 44 -3 55 -5 11 -2 34
-6 50 -9 17 -3 41 1 54 8 21 12 29 11 58 -6 49 -30 47 -35 -10 -27 -76 11
-109 11 -102 -1 4 -6 10 -8 15 -5 5 3 12 0 16 -6 5 -9 0 -10 -17 -6 -13 4 -28
7 -32 7 -5 0 -5 5 -1 12 5 7 3 8 -6 3 -10 -6 -7 -12 11 -26 28 -21 62 -32 53
-17 -4 6 4 3 18 -6 13 -8 47 -16 76 -17 32 -1 48 -5 40 -10 -7 -5 -11 -9 -8
-10 35 -6 50 -10 71 -18 20 -8 13 -10 -36 -11 -84 -1 -104 -3 -99 -12 3 -4 20
-6 39 -4 19 1 35 -1 35 -6 0 -4 30 -8 66 -8 l66 0 -23 20 -24 20 30 -6 c42 -8
95 -33 95 -44 0 -5 -5 -21 -12 -35 -10 -22 -9 -28 10 -41 21 -15 32 -41 12
-29 -5 3 -10 -3 -10 -14 0 -12 4 -21 8 -21 5 0 9 -7 9 -15 0 -10 -6 -14 -15
-10 -12 4 -13 3 -2 -10 10 -12 40 -15 166 -14 146 0 152 1 136 18 -9 10 -21
16 -26 13 -5 -3 -6 -1 -3 5 3 5 -12 29 -33 54 -22 24 -39 39 -40 32 0 -6 4
-14 10 -18 5 -3 19 -19 31 -36 20 -28 20 -30 3 -21 -34 18 -114 114 -147 176
-25 46 -40 63 -69 75 -21 9 -38 20 -38 24 0 5 4 6 9 2 5 -3 12 -1 16 5 3 5 0
10 -9 10 -21 0 -76 49 -76 68 0 10 -13 26 -29 37 -17 11 -28 21 -26 23 8 8 73
-39 90 -64 9 -14 19 -23 22 -21 9 10 -20 52 -59 86 -28 24 -38 40 -35 53 4 13
1 18 -7 15 -14 -6 -25 0 -43 23 -10 14 -4 15 50 14 68 -1 90 3 81 17 -5 8 18
14 39 10 5 -1 6 3 2 9 -3 5 -19 8 -34 6 -40 -4 -87 18 -94 44 l-6 22 22 -20
c21 -19 121 -45 132 -34 3 3 5 10 5 16 0 6 -4 5 -9 -3 -6 -9 -11 -10 -15 -2
-4 6 -22 11 -40 11 -38 0 -63 25 -91 87 -10 24 -33 52 -51 65 -21 14 -40 40
-50 65 -19 48 -44 76 -44 49 0 -9 5 -16 12 -16 6 0 9 -3 6 -6 -12 -11 -48 17
-48 37 0 21 -17 42 -38 46 -6 2 -12 -1 -12 -6 0 -5 -16 -12 -35 -15 -19 -4
-54 -16 -77 -26 -105 -48 -249 -6 -314 89 -13 20 -24 31 -24 26 0 -5 -6 0 -14
10 -10 14 -11 25 -4 39 7 14 7 17 -2 11 -9 -5 -10 -2 -6 13 4 11 8 41 11 66 5
61 26 93 75 112 55 22 51 37 -6 28 -32 -5 -45 -3 -40 4 3 6 2 13 -4 17 -5 3
-10 1 -10 -4 0 -6 -8 -11 -19 -11 -10 0 -43 -8 -72 -17 -55 -17 -84 -33 -60
-33 8 0 2 -9 -12 -20 -31 -25 -33 -25 -40 0 -3 11 0 20 6 20 7 0 4 7 -5 14
-13 9 -18 26 -16 57 1 37 2 39 5 12 3 -19 12 -37 24 -43 22 -12 23 -8 10 38
-11 37 -8 39 16 12 17 -17 25 -18 80 -10 88 12 111 28 37 25 -33 -1 -68 2 -79
6 -19 8 -19 8 3 15 12 3 22 10 22 14 0 7 29 20 53 24 4 0 11 6 15 13 4 7 28
21 52 32 43 19 44 20 15 21 -42 1 -13 16 47 23 43 6 68 18 158 75 42 27 56 22
90 -35 18 -29 47 -65 64 -80 17 -14 30 -30 29 -34 -2 -5 5 -5 14 -2 9 4 14 2
10 -3 -13 -22 103 -19 154 3 58 26 91 60 139 148 31 55 51 78 96 108 40 27 63
37 79 33 23 -6 22 -6 -11 -43 -34 -37 -39 -57 -7 -32 16 12 17 12 7 -1 -6 -8
-11 -28 -10 -45 1 -16 -2 -37 -6 -47 -5 -11 -2 -18 8 -22 11 -4 15 -2 11 7 -3
8 1 14 9 14 8 0 13 -6 10 -13 -3 -8 0 -11 10 -7 17 6 18 15 2 32 -11 10 -10
11 4 6 13 -5 19 0 23 18 5 19 11 24 28 19 18 -4 20 -2 10 9 -7 7 -13 18 -13
24 0 5 5 3 10 -5 6 -10 10 -11 10 -3 0 20 59 4 115 -31 27 -17 54 -30 58 -28
5 1 14 -1 21 -7 6 -5 34 -9 62 -8 48 1 114 -18 114 -32 0 -4 15 -15 33 -26 24
-15 58 -21 144 -25 98 -5 114 -8 135 -28 13 -12 39 -36 58 -52 34 -29 34 -30
7 -20 -41 15 -54 12 -31 -6 18 -15 17 -15 -18 -10 -21 2 -38 3 -38 0 0 -3 19
-14 43 -24 44 -20 126 -29 97 -10 -10 6 -11 10 -2 10 7 0 12 14 12 35 0 22 8
43 20 55 12 12 18 25 15 30 -4 6 -2 10 3 10 14 0 22 -35 33 -145 13 -130 12
-160 -7 -217 -17 -53 -44 -65 -44 -20 0 20 -3 23 -9 13 -7 -11 -14 -7 -30 20
-12 19 -21 38 -21 43 0 5 -3 7 -6 4 -3 -3 1 -22 10 -41 16 -39 10 -56 -11 -29
-11 15 -12 13 -1 -12 7 -15 14 -23 16 -17 2 6 8 9 13 5 5 -3 9 -61 9 -128 0
-145 -15 -204 -66 -262 -19 -20 -34 -44 -34 -51 0 -7 -5 -13 -11 -13 -6 0 -8
-8 -5 -17 3 -10 6 -49 7 -88 1 -39 8 -79 16 -90 7 -11 13 -28 13 -38 0 -10 4
-15 10 -12 5 3 7 0 4 -8 -7 -20 70 -155 123 -216 36 -41 46 -62 54 -111 l11
-60 79 0 c84 0 93 6 59 43 -18 19 -20 29 -14 77 4 30 7 62 7 70 0 8 6 21 14
28 20 20 16 41 -7 35 -10 -3 -18 -8 -17 -12 2 -8 -54 -77 -59 -73 -2 1 -9 2
-15 2 -8 0 -9 -4 0 -13 15 -19 1 -30 -17 -14 -8 6 -17 11 -19 9 -2 -1 -17 14
-35 33 -37 43 -51 39 -15 -5 27 -32 43 -68 33 -77 -3 -4 -6 -1 -6 5 0 7 -13
31 -30 54 -16 22 -30 46 -30 51 0 6 -12 28 -26 49 -15 21 -24 41 -21 44 3 3
11 -4 17 -16 13 -24 47 -60 57 -60 3 0 15 -8 25 -17 18 -16 18 -16 12 0 -4 12
0 19 14 24 12 5 22 13 24 18 2 6 5 9 9 8 3 -1 10 7 17 17 11 19 9 19 -66 14
-87 -6 -115 8 -127 62 -5 22 -4 25 4 14 6 -8 11 -10 11 -5 0 6 5 3 10 -5 5 -8
10 -10 10 -4 0 6 24 10 65 9 36 -1 65 2 65 6 0 5 8 9 17 9 9 0 14 3 10 6 -3 4
8 16 26 28 17 12 33 30 35 40 5 25 -67 99 -83 86 -6 -5 -20 -11 -31 -13 -49
-10 -114 -57 -114 -84 0 -8 -7 -10 -17 -6 -16 6 -16 5 -4 -10 12 -15 12 -17
-3 -11 -9 3 -16 13 -16 21 0 8 -8 13 -17 11 -21 -3 -21 12 -5 135 8 64 17 89
52 145 44 69 90 187 90 229 0 13 13 72 29 131 17 59 35 141 40 182 14 98 15
103 23 116 4 6 3 26 -2 44 -6 21 -6 38 0 45 5 6 9 47 9 90 -1 137 30 287 48
237 3 -8 9 -10 16 -3 9 7 11 -3 9 -37 -2 -35 0 -43 7 -32 7 10 11 214 11 586
l0 570 -34 -4 c-20 -2 -37 1 -41 9 -11 17 -15 59 -6 59 5 0 6 24 4 53 -6 74 3
109 42 168 l35 51 0 204 0 204 -27 1 c-25 2 -25 2 -5 6 29 6 24 26 -8 33 -16
4 -31 21 -47 55 -62 132 -67 140 -113 163 -24 12 -57 22 -72 22 -34 0 -37 21
-5 47 12 11 35 33 51 51 l30 32 -1922 0 -1922 0 0 -1427z m3924 985 c-9 -15
-55 58 -48 77 5 12 12 6 30 -25 13 -23 21 -46 18 -52z m39 -371 c-11 -12 -33
-37 -49 -56 -53 -63 -64 -71 -94 -71 -33 0 -38 11 -14 31 8 7 13 21 11 31 -3
10 -1 18 4 18 5 0 9 7 9 16 0 16 55 43 110 54 45 8 48 5 23 -23z m-2829 -346
c-4 -31 -7 -60 -5 -65 1 -5 -5 -6 -14 -3 -11 5 -15 0 -15 -20 0 -26 -1 -26
-14 -7 -8 10 -11 21 -7 24 4 3 7 20 5 38 -1 18 2 45 6 60 l8 27 1 -28 c1 -23
3 -26 15 -15 8 7 14 15 14 18 0 3 1 19 2 35 2 21 4 24 7 11 3 -10 2 -44 -3
-75z m-244 -33 c10 -6 16 -19 13 -27 -3 -10 0 -9 8 3 9 15 9 23 0 39 -10 15
-10 18 0 15 20 -7 37 -79 26 -105 -6 -13 -13 -23 -16 -23 -4 0 -8 -10 -8 -22
-1 -13 1 -18 5 -13 4 6 19 21 34 33 l26 24 -24 -49 c-20 -38 -30 -48 -50 -48
-14 -1 -30 5 -36 13 -10 11 -8 13 7 10 10 -1 20 3 22 10 6 15 -11 16 -38 2
-22 -13 -27 8 -6 29 10 10 8 11 -6 5 -17 -6 -17 -4 -4 27 17 42 17 40 18 92 1
23 4 32 6 19 3 -12 13 -28 23 -34z m-74 -32 c-3 -11 -6 -25 -6 -31 0 -11 -20
16 -20 28 0 5 5 5 10 2 14 -9 12 9 -2 24 -11 10 -9 11 5 5 13 -5 17 -13 13
-28z m301 -38 c-3 -8 -6 -5 -6 6 -1 11 2 17 5 13 3 -3 4 -12 1 -19z m-14 -158
c9 0 39 -19 65 -42 49 -45 42 -29 -17 36 -35 38 -35 39 -6 19 38 -27 120 -113
169 -178 36 -46 38 -53 34 -107 -3 -39 -1 -57 6 -55 6 2 13 12 15 23 2 10 8
22 13 25 5 3 10 15 11 27 l1 22 22 -21 c21 -20 154 -74 154 -63 0 3 -34 21
-75 39 -86 39 -99 52 -25 24 28 -10 57 -19 64 -19 8 0 27 -5 43 -12 15 -6 31
-12 34 -12 3 -1 38 -27 77 -58 40 -32 108 -76 151 -98 44 -22 87 -50 96 -62
64 -92 87 -127 101 -153 16 -28 16 -29 1 -16 -14 11 -17 11 -18 0 -1 -8 -3
-24 -4 -36 -1 -13 2 -23 7 -23 6 0 7 -7 4 -16 -3 -8 -2 -12 3 -9 13 8 91 -68
91 -88 0 -10 5 -17 10 -17 6 0 10 4 10 9 0 6 -4 13 -10 16 -5 3 -10 11 -10 17
0 7 6 6 15 -2 17 -14 21 -65 5 -55 -5 3 -11 -2 -12 -12 0 -10 -2 -23 -2 -30
-1 -6 -5 -15 -10 -20 -5 -5 -6 -2 -1 6 5 9 3 12 -6 9 -8 -3 -13 -11 -12 -17 2
-6 0 -10 -5 -9 -4 0 -15 -2 -25 -7 -10 -4 -43 -5 -74 -3 -52 5 -59 8 -99 54
-65 73 -95 119 -103 156 -9 42 -3 70 12 62 8 -5 8 -2 0 7 -13 13 -19 38 -6 25
4 -3 15 10 25 30 22 47 18 53 -16 19 l-26 -26 0 23 c-1 13 -7 41 -15 63 -11
30 -11 41 -2 47 9 6 6 13 -9 26 -12 9 -27 28 -34 40 -6 13 -14 21 -17 18 -3
-3 -23 8 -43 24 -44 35 -55 38 -40 10 14 -26 2 -26 -25 0 -28 26 -73 39 -105
29 -14 -4 -20 -7 -15 -8 6 -1 15 -12 22 -26 l11 -25 -30 21 c-16 12 -32 18
-35 15 -11 -10 84 -94 134 -120 53 -27 123 -92 88 -81 -16 4 -15 3 3 -6 48
-26 19 -44 -65 -41 -76 3 -136 -20 -176 -67 -29 -35 -33 -46 -17 -56 6 -3 10
-2 10 3 0 5 18 17 40 28 22 10 40 22 40 26 0 4 26 10 58 14 31 3 66 11 77 16
17 8 18 7 4 -4 -9 -7 -15 -20 -13 -28 3 -23 23 -70 28 -70 3 0 2 8 -1 17 -5
12 -2 15 9 10 10 -3 19 1 22 10 4 9 9 13 13 10 3 -4 12 -2 19 4 8 7 14 6 20
-2 4 -8 3 -9 -4 -5 -17 10 -15 -23 3 -57 10 -19 10 -26 2 -22 -7 4 -5 1 4 -7
9 -7 19 -23 23 -35 4 -13 23 -41 42 -64 44 -52 57 -77 49 -90 -5 -6 -15 -5
-31 5 -27 18 -34 20 -34 7 0 -5 14 -14 30 -20 40 -13 38 -20 -5 -16 -19 2 -35
-1 -35 -6 0 -5 7 -9 15 -9 8 0 15 -5 15 -11 0 -5 -4 -7 -10 -4 -5 3 -10 0 -10
-7 0 -8 -4 -7 -10 4 -11 18 -49 16 -60 -3 -4 -6 -9 -10 -11 -9 -5 2 -39 -9
-59 -19 -13 -6 -44 -7 -86 -2 -32 3 -55 38 -64 96 -11 68 -61 194 -82 206 -7
4 -29 -1 -49 -10 -65 -32 -126 -5 -195 87 -34 46 -34 49 -29 117 2 39 9 84 13
100 5 17 7 55 6 85 -2 30 -7 120 -10 200 -3 80 -10 153 -15 162 -5 9 -35 25
-66 35 -31 10 -58 23 -60 29 -3 9 7 8 34 -2 21 -7 46 -13 56 -14z m695 -360
c17 -8 32 -18 32 -22 0 -10 -51 12 -70 30 -8 8 -10 12 -5 10 6 -3 25 -11 43
-18z m-593 -450 c3 -5 11 -10 16 -10 6 0 7 5 4 10 -9 14 -4 13 49 -14 26 -13
43 -27 37 -30 -6 -4 -25 0 -42 9 -17 9 -28 12 -24 5 4 -6 18 -15 31 -20 13 -5
29 -22 34 -36 12 -31 3 -47 -12 -21 -5 10 -20 22 -32 27 -25 9 -94 90 -77 90
5 0 13 -4 16 -10z m2644 -154 c-2 -2 -13 8 -23 22 l-19 27 24 -22 c12 -12 21
-24 18 -27z m-2788 -77 c-8 -41 -9 -39 -9 31 0 60 2 69 9 44 5 -17 5 -49 0
-75z m2025 75 c46 -27 57 -38 27 -27 -24 9 -83 44 -83 49 0 8 13 3 56 -22z
m-676 -14 c6 -11 14 -19 18 -18 4 1 19 -2 35 -6 30 -9 81 0 73 13 -4 7 45 8
77 2 16 -3 5 -29 -25 -65 -45 -52 -100 -60 -146 -22 -17 15 -34 26 -37 26 -4
-1 -10 2 -13 6 -4 4 -1 4 6 0 15 -9 15 -6 -3 37 -18 43 -18 47 -5 47 5 0 14
-9 20 -20z m1428 -37 c6 -24 6 -41 2 -38 -4 3 -11 21 -14 40 -4 19 -11 35 -17
35 -5 0 -7 -11 -3 -25 l6 -26 -25 23 -25 23 26 11 c33 14 38 10 50 -43z m-70
-24 c19 -30 8 -34 -12 -4 -9 14 -13 25 -9 25 5 0 14 -9 21 -21z m-2558 -145
c0 -23 -17 -67 -47 -125 -25 -49 -47 -88 -49 -87 -9 10 -44 117 -44 135 0 16
18 36 62 68 34 25 66 45 70 45 4 0 8 -16 8 -36z m164 -101 c-1 -21 -8 -68 -15
-105 l-13 -68 34 -35 34 -35 -44 0 c-26 0 -51 6 -62 17 -20 18 -25 48 -5 37 9
-6 9 -4 -1 8 -9 11 -11 35 -8 70 2 29 5 61 5 71 1 18 55 77 70 77 5 0 7 -17 5
-37z m343 5 c-3 -8 -6 -5 -6 6 -1 11 2 17 5 13 3 -3 4 -12 1 -19z m-1166 -91
c-6 -6 -13 6 -19 34 -9 48 -2 80 9 39 7 -24 7 -24 10 5 2 20 4 13 6 -19 2 -27
0 -53 -6 -59z m1146 51 c-3 -7 -5 -2 -5 12 0 14 2 19 5 13 2 -7 2 -19 0 -25z
m20 -20 c-3 -8 -6 -5 -6 6 -1 11 2 17 5 13 3 -3 4 -12 1 -19z m105 -25 c-7 -3
-19 -12 -28 -20 -16 -17 -30 -11 -19 7 8 14 48 30 55 22 3 -2 -1 -7 -8 -9z
m-269 -14 c12 -7 29 -21 39 -33 9 -12 17 -17 18 -12 0 11 29 -25 30 -37 0 -4
-8 -4 -17 1 -10 5 -52 17 -93 27 -95 23 -98 24 -69 46 28 21 61 24 92 8z m310
-43 c-3 -15 -2 -17 4 -8 7 9 13 6 22 -14 13 -29 6 -68 -11 -58 -7 5 -8 2 -2
-7 5 -8 7 -22 6 -32 -2 -10 2 -26 10 -35 12 -15 11 -16 -4 -3 -10 7 -18 20
-18 27 0 8 -3 13 -7 12 -9 -3 -109 101 -102 105 33 19 48 23 67 20 13 -1 21 1
18 5 -3 5 1 9 8 9 8 0 12 -8 9 -21z m-879 -41 c23 -15 24 -18 10 -32 -11 -12
-18 -13 -27 -4 -6 6 -16 11 -21 11 -6 0 -5 -5 2 -12 19 -19 14 -34 -18 -66
-34 -35 -120 -67 -150 -57 -31 10 -43 49 -26 89 11 26 29 41 77 65 69 35 106
36 153 6z m-515 -34 c12 -16 26 -52 33 -79 13 -61 1 -86 -56 -117 -33 -18 -39
-19 -64 -5 -34 19 -72 76 -72 106 0 30 23 31 41 4 13 -19 14 -16 15 36 1 43 5
60 19 70 30 22 62 17 84 -15z m1076 -41 c25 -11 -1 -11 -35 0 -20 6 -21 8 -5
8 11 0 29 -3 40 -8z m426 -91 l34 -31 -32 21 c-18 12 -35 26 -38 31 -11 18 2
10 36 -21z m-1014 -15 c-15 -13 -38 -24 -49 -24 -16 0 -11 7 23 29 50 34 67
31 26 -5z m-168 -60 c42 -9 36 -20 -27 -55 -51 -29 -52 -29 -71 -10 -47 47 8
83 98 65z m1199 -81 c-10 -2 -26 -2 -35 0 -10 3 -2 5 17 5 19 0 27 -2 18 -5z
m-1740 -18 c-13 -12 -99 -75 -102 -75 -12 0 10 43 30 59 13 10 21 20 19 23 -3
2 9 3 26 0 16 -2 29 -6 27 -7z m2353 -62 c12 -16 12 -17 -2 -6 -9 7 -20 9 -24
5 -5 -4 -5 -1 -1 6 9 16 11 15 27 -5z m-2467 -92 c-11 -11 -35 28 -39 65 l-5
39 24 -50 c14 -27 23 -51 20 -54z m2020 58 c17 -10 24 -19 16 -19 -20 1 -60
35 -59 52 0 11 1 11 6 0 3 -8 19 -22 37 -33z m-191 24 c-13 -2 -33 -2 -45 0
-13 2 -3 4 22 4 25 0 35 -2 23 -4z m665 -48 c-3 -3 -9 2 -12 12 -6 14 -5 15 5
6 7 -7 10 -15 7 -18z m-47 -17 c11 -22 11 -22 -7 -6 -10 9 -30 18 -44 21 -21
4 -20 4 7 6 24 1 35 -5 44 -21z m-405 -25 c-10 -11 -37 -12 -30 -2 3 5 12 9
21 9 9 0 13 -3 9 -7z m34 -8 c11 -13 10 -14 -4 -9 -9 3 -16 10 -16 15 0 13 6
11 20 -6z m459 -40 c37 -7 38 -15 1 -11 -19 2 -40 12 -47 22 -19 27 -16 40 5
15 9 -12 28 -23 41 -26z m-711 -29 c29 -11 52 -23 52 -27 0 -12 -58 8 -93 31
-35 24 -34 24 41 -4z m233 -12 c7 -9 33 -11 82 -9 68 4 69 4 19 -4 -29 -5 -56
-12 -59 -15 -3 -3 -20 1 -38 9 -19 7 -36 11 -39 7 -3 -3 -6 0 -6 6 0 6 -10 13
-22 15 -13 3 -6 4 15 4 21 -1 43 -7 48 -13z m-546 -3 c15 -6 9 -10 -29 -15
-27 -4 -56 -10 -65 -12 -9 -2 2 5 24 16 45 22 43 21 70 11z m401 -52 c3 -13 5
-48 4 -76 0 -29 3 -53 8 -53 5 0 7 12 4 28 -8 45 14 13 27 -40 11 -48 7 -77
-13 -79 -6 -1 -30 -1 -54 -1 -24 1 -40 -3 -37 -8 4 -6 -8 -10 -24 -10 -17 0
-31 5 -31 10 0 6 -17 10 -37 10 -27 0 -34 3 -26 11 6 6 35 9 66 7 58 -3 67 10
22 30 -50 23 -75 54 -75 94 0 27 4 38 15 38 12 0 14 -4 5 -19 -7 -14 -7 -22 1
-26 6 -4 13 3 16 15 4 13 11 19 20 16 9 -4 7 4 -7 24 -12 17 -16 30 -10 30 6
0 8 5 5 10 -7 11 12 14 63 11 20 -2 32 2 32 10 0 20 20 -4 26 -32z m171 5 c-3
-3 -12 -4 -19 -1 -8 3 -5 6 6 6 11 1 17 -2 13 -5z m103 -14 c12 -8 11 -10 -6
-10 -12 0 -27 -6 -33 -13 -6 -8 -29 -20 -51 -27 -34 -11 -43 -11 -53 0 -10 10
-9 12 6 7 26 -10 21 0 -10 18 -18 10 -21 14 -8 11 11 -3 40 1 65 9 55 17 70
18 90 5z m-630 -20 c0 -5 -10 -10 -22 -9 -22 0 -22 1 -3 9 11 5 21 9 23 9 1 1
2 -3 2 -9z m148 -14 c45 -23 40 -37 -5 -16 -21 9 -49 22 -63 28 -25 11 -25 11
5 8 17 -2 45 -10 63 -20z m-81 -28 c25 -34 -3 -98 -30 -68 -9 10 -9 11 1 6 22
-13 33 4 17 28 -8 12 -12 26 -8 31 5 4 -11 5 -35 2 -24 -3 -40 -1 -36 4 8 14
80 11 91 -3z m641 -7 c11 -7 11 -9 -1 -14 -9 -3 -18 1 -21 9 -6 16 2 18 22 5z
m-688 -73 c0 -5 -9 -3 -20 4 -11 7 -20 18 -20 25 0 19 -21 27 -31 12 -7 -11
-9 -11 -9 2 0 30 14 29 47 -3 18 -17 33 -36 33 -40z m-115 46 c-20 -16 -20
-16 3 -9 19 6 22 3 22 -24 0 -39 44 -73 78 -60 12 5 43 8 68 7 39 -2 43 -4 28
-15 -10 -7 -27 -13 -38 -14 -12 0 -30 -2 -41 -4 -85 -16 -245 1 -245 25 0 11
146 7 175 -4 11 -5 5 2 -14 14 -19 12 -48 22 -65 23 l-31 1 28 10 c32 12 35
26 7 33 -11 3 -17 9 -14 14 3 5 9 7 14 4 5 -3 11 -1 15 5 3 5 12 10 18 10 7 0
3 -8 -8 -16z m131 -11 c-7 -7 -26 7 -26 19 0 6 6 6 15 -2 9 -7 13 -15 11 -17z
m934 -58 c32 -25 61 -45 65 -45 4 0 13 -7 21 -15 25 -24 6 -17 -71 27 -41 22
-76 49 -78 60 -3 10 -3 18 0 18 2 0 31 -20 63 -45z m-975 -86 c-4 8 5 11 30 9
20 -1 39 -6 41 -10 3 -4 15 -8 27 -8 20 -1 21 -1 4 -11 -13 -7 -27 -7 -49 0
-46 16 -45 6 1 -21 23 -13 48 -37 57 -57 15 -31 15 -35 -1 -50 -14 -14 -15
-14 -10 0 5 12 -2 16 -30 17 -42 2 -77 26 -95 65 -14 32 -45 47 -95 47 -19 0
-36 3 -38 8 -3 4 21 6 54 5 32 -1 61 3 64 8 4 5 14 5 27 -2 15 -8 19 -8 13 0z
m-180 -27 c-3 -3 -11 0 -18 7 -9 10 -8 11 6 5 10 -3 15 -9 12 -12z m138 -32
l22 -22 -26 16 c-15 9 -46 21 -70 26 l-44 9 48 -3 c35 -2 55 -10 70 -26z
m-300 -58 c-10 -9 -28 -30 -41 -46 -16 -21 -26 -26 -34 -18 -7 7 -19 7 -34 2
-13 -5 -24 -6 -24 -2 0 4 -5 -1 -11 -11 -5 -9 -15 -17 -20 -17 -6 0 -1 13 10
29 15 20 33 31 59 36 21 3 52 15 68 25 37 24 49 25 27 2z m81 -21 c4 -5 -3 -7
-14 -4 -23 6 -26 13 -6 13 8 0 17 -4 20 -9z m1400 -17 c3 -8 2 -12 -4 -9 -6 3
-10 10 -10 16 0 14 7 11 14 -7z m66 -73 c41 -8 38 -9 -41 -10 -73 -1 -86 1
-86 15 0 17 18 16 127 -5z"/>
<path d="M875 2800 c-3 -5 -1 -10 4 -10 6 0 11 5 11 10 0 6 -2 10 -4 10 -3 0
-8 -4 -11 -10z"/>
<path d="M1723 2191 c12 -22 25 -41 30 -41 10 0 -18 53 -37 69 -10 9 -8 -1 7
-28z"/>
<path d="M1878 2089 c14 -21 27 -37 29 -35 8 7 -26 63 -41 69 -8 3 -4 -9 12
-34z"/>
<path d="M1900 2033 c1 -11 26 -43 33 -43 4 0 1 11 -5 25 -10 23 -28 35 -28
18z"/>
<path d="M1936 1957 c3 -10 9 -15 12 -12 3 3 0 11 -7 18 -10 9 -11 8 -5 -6z"/>
<path d="M1971 1934 c0 -11 3 -14 6 -6 3 7 2 16 -1 19 -3 4 -6 -2 -5 -13z"/>
<path d="M2010 1830 c0 -6 -4 -9 -9 -5 -5 3 -12 1 -16 -5 -4 -6 5 -10 20 -10
14 0 38 -8 53 -17 l27 -17 -20 23 c-25 29 -55 46 -55 31z"/>
<path d="M1840 1823 c0 -6 8 -17 18 -24 16 -13 16 -13 2 6 -8 11 -16 22 -17
24 -2 2 -3 0 -3 -6z"/>
<path d="M1892 1774 c16 -18 78 -59 78 -51 0 2 -21 19 -47 37 -27 19 -40 25
-31 14z"/>
<path d="M1536 1717 c3 -10 9 -15 12 -12 3 3 0 11 -7 18 -10 9 -11 8 -5 -6z"/>
<path d="M1746 1608 c3 -5 10 -6 15 -3 13 9 11 12 -6 12 -8 0 -12 -4 -9 -9z"/>
<path d="M1699 1583 c-13 -17 -13 -17 6 -3 11 8 22 16 24 17 2 2 0 3 -6 3 -6
0 -17 -8 -24 -17z"/>
<path d="M2016 522 c-2 -4 -1 -14 3 -21 6 -10 10 -9 14 3 6 16 -8 32 -17 18z"/>
<path d="M1959 499 c14 -5 28 -6 32 -2 4 4 -6 9 -24 10 -30 1 -31 1 -8 -8z"/>
<path d="M1948 283 c7 -3 16 -2 19 1 4 3 -2 6 -13 5 -11 0 -14 -3 -6 -6z"/>
<path d="M1709 196 c13 -16 51 -41 51 -33 0 2 -15 14 -32 27 -21 15 -28 17
-19 6z"/>
<path d="M1686 188 c6 -17 63 -58 80 -58 5 0 -7 10 -26 21 -19 12 -40 29 -47
38 -12 15 -13 14 -7 -1z"/>
<path d="M2980 1630 c20 -13 53 -13 45 0 -3 6 -18 10 -33 10 -21 0 -24 -2 -12
-10z"/>
<path d="M3198 1552 c-37 -4 -25 -32 14 -32 19 0 27 4 22 11 -5 8 4 10 29 7
20 -2 34 -1 31 3 -5 9 -61 15 -96 11z m19 -18 c-3 -3 -12 -4 -19 -1 -8 3 -5 6
6 6 11 1 17 -2 13 -5z"/>
<path d="M2880 1536 c0 -2 8 -10 18 -17 15 -13 16 -12 3 4 -13 16 -21 21 -21
13z"/>
<path d="M2845 1500 c-3 -6 1 -7 9 -4 18 7 21 14 7 14 -6 0 -13 -4 -16 -10z"/>
<path d="M2845 1473 c-26 -5 -70 -43 -71 -63 -1 -8 -5 -23 -9 -32 -5 -12 -3
-18 5 -18 19 0 100 42 100 52 0 5 -6 6 -12 2 -8 -5 -8 -1 1 10 13 16 12 17
-15 11 -25 -6 -27 -5 -12 7 9 7 25 18 35 25 18 12 14 13 -22 6z m-54 -76 c-10
-9 -11 -8 -5 6 3 10 9 15 12 12 3 -3 0 -11 -7 -18z"/>
<path d="M3270 1391 c0 -6 4 -13 10 -16 6 -3 7 1 4 9 -7 18 -14 21 -14 7z"/>
<path d="M3786 1373 c6 -4 14 -15 17 -23 5 -11 6 -9 4 4 -1 11 -9 21 -17 23
-10 3 -11 2 -4 -4z"/>
<path d="M3286 1347 c3 -10 9 -15 12 -12 3 3 0 11 -7 18 -10 9 -11 8 -5 -6z"/>
<path d="M2760 1339 c0 -5 5 -7 10 -4 6 3 10 8 10 11 0 2 -4 4 -10 4 -5 0 -10
-5 -10 -11z"/>
<path d="M3801 1314 c0 -11 3 -14 6 -6 3 7 2 16 -1 19 -3 4 -6 -2 -5 -13z"/>
<path d="M3721 1287 c23 -18 32 -48 12 -40 -10 4 -14 2 -12 -6 3 -7 8 -11 11
-9 4 2 14 -6 22 -17 13 -18 13 -15 4 27 -8 34 -17 48 -32 52 -18 4 -19 3 -5
-7z"/>
<path d="M2627 1158 c-16 -12 -15 -13 8 -14 14 -1 22 2 19 7 -3 5 2 9 11 9 8
0 18 -7 21 -15 4 -8 9 -13 14 -10 4 2 13 -13 20 -35 7 -21 19 -41 26 -44 17
-7 17 -8 -1 45 -18 51 -38 69 -75 69 -14 0 -34 -6 -43 -12z"/>
<path d="M2589 1090 c-23 -31 -29 -37 -54 -55 -18 -14 -18 -14 9 -5 16 6 35 9
42 6 9 -3 11 1 7 11 -4 11 -2 14 5 9 7 -4 12 -1 12 9 0 9 4 14 9 10 6 -3 8
-13 6 -23 -1 -9 3 -23 11 -30 11 -10 13 -7 8 20 -5 31 -5 32 10 14 9 -11 29
-21 45 -22 16 -1 39 -7 50 -14 17 -9 21 -8 21 4 0 8 -9 17 -19 21 -10 3 -34
20 -53 38 -43 40 -83 43 -109 7z"/>
<path d="M2784 1070 c1 -27 5 -53 9 -57 4 -3 7 -2 8 3 4 50 4 66 -3 70 -5 3
-6 9 -3 14 3 5 1 11 -4 14 -5 4 -8 -15 -7 -44z"/>
<path d="M2906 1072 c-3 -5 0 -17 7 -26 10 -13 30 -19 75 -20 34 -2 62 1 62 6
0 4 -9 8 -19 8 -11 0 -22 4 -25 9 -3 4 -18 7 -33 5 -15 -1 -35 4 -44 12 -10 9
-20 11 -23 6z"/>
<path d="M3000 1000 c8 -5 20 -10 25 -10 6 0 3 5 -5 10 -8 5 -19 10 -25 10 -5
0 -3 -5 5 -10z"/>
<path d="M2569 883 c11 -22 30 -38 35 -32 2 2 -8 15 -21 29 -23 23 -24 23 -14
3z"/>
<path d="M2675 530 c3 -5 8 -10 11 -10 2 0 4 5 4 10 0 6 -5 10 -11 10 -5 0 -7
-4 -4 -10z"/>
<path d="M3941 224 c-12 -9 -28 -13 -36 -10 -10 3 -13 -3 -13 -25 1 -16 5 -29
10 -29 5 0 7 4 4 9 -4 5 12 18 34 28 22 10 40 21 40 25 0 15 -18 16 -39 2z"/>
<path d="M2873 202 c7 -16 20 -39 30 -53 10 -14 6 -1 -8 29 -27 55 -43 72 -22
24z"/>
<path d="M2065 180 c3 -5 8 -10 11 -10 2 0 4 5 4 10 0 6 -5 10 -11 10 -5 0 -7
-4 -4 -10z"/>
<path d="M2988 168 c5 -5 16 -8 23 -6 8 3 3 7 -10 11 -17 4 -21 3 -13 -5z"/>
<path d="M2973 139 c6 -10 13 -17 16 -17 28 2 71 -33 71 -59 0 -20 -20 -5 -30
23 -11 29 -26 32 -26 5 0 -11 4 -17 8 -15 4 3 8 -1 8 -9 0 -26 54 -67 90 -67
l33 0 -19 23 c-11 12 -28 35 -38 50 l-17 28 28 -6 c23 -4 25 -4 8 4 -11 6 -48
21 -82 34 -54 21 -60 22 -50 6z"/>
<path d="M2325 140 c-3 -6 1 -7 9 -4 18 7 21 14 7 14 -6 0 -13 -4 -16 -10z"/>
<path d="M2598 143 c6 -2 18 -2 25 0 6 3 1 5 -13 5 -14 0 -19 -2 -12 -5z"/>
<path d="M2670 146 c0 -2 9 -6 20 -9 11 -3 20 -1 20 4 0 5 -9 9 -20 9 -11 0
-20 -2 -20 -4z"/>
<path d="M3060 147 c0 -3 15 -10 32 -16 18 -6 28 -7 23 -2 -12 10 -55 25 -55
18z"/>
<path d="M2257 130 c-15 -5 -55 -9 -89 -9 -33 0 -66 -5 -71 -10 -8 -8 -5 -11
9 -12 10 0 13 -3 7 -6 -29 -11 -10 -20 29 -13 24 5 46 6 50 4 4 -3 24 5 45 16
21 11 43 20 50 20 6 0 15 5 18 10 7 12 -9 12 -48 0z"/>
<path d="M1600 114 c0 -10 33 -54 41 -54 13 0 -11 48 -27 54 -8 3 -14 3 -14 0z"/>
<path d="M2470 116 c0 -2 15 -9 33 -15 29 -10 30 -9 13 4 -18 14 -46 20 -46
11z"/>
<path d="M2671 93 c7 -12 15 -20 18 -17 3 2 -3 12 -13 22 -17 16 -18 16 -5 -5z"/>
<path d="M2400 96 c0 -2 9 -6 20 -9 11 -3 18 -1 14 4 -5 9 -34 13 -34 5z"/>
<path d="M2550 90 c20 -13 33 -13 25 0 -3 6 -14 10 -23 10 -15 0 -15 -2 -2
-10z"/>
<path d="M2151 60 c9 -5 33 -12 54 -14 52 -7 58 -18 7 -15 -23 2 -45 0 -48 -4
-4 -4 24 -6 62 -6 38 1 61 3 52 6 -10 2 -18 8 -18 13 0 12 -29 21 -80 26 -33
3 -41 2 -29 -6z"/>
<path d="M3112 51 c15 -24 57 -53 71 -49 7 2 -8 17 -34 34 -27 18 -43 24 -37
15z"/>
<path d="M1556 38 c3 -5 10 -6 15 -3 13 9 11 12 -6 12 -8 0 -12 -4 -9 -9z"/>
<path d="M2611 46 c2 -2 22 -11 44 -20 l40 -16 -24 20 c-13 11 -32 20 -44 20
-11 0 -18 -2 -16 -4z"/>
<path d="M3465 30 c3 -5 8 -10 11 -10 2 0 4 5 4 10 0 6 -5 10 -11 10 -5 0 -7
-4 -4 -10z"/>
<path d="M3786 17 c3 -10 9 -15 12 -12 3 3 0 11 -7 18 -10 9 -11 8 -5 -6z"/>
<path d="M3220 10 c0 -5 10 -10 23 -10 18 0 19 2 7 10 -19 13 -30 13 -30 0z"/>
<path d="M3720 10 c0 -5 7 -10 16 -10 8 0 12 5 9 10 -3 6 -10 10 -16 10 -5 0
-9 -4 -9 -10z"/>
<path d="M2198 3 c12 -2 30 -2 40 0 9 3 -1 5 -23 4 -22 0 -30 -2 -17 -4z"/>
<path d="M2543 3 c15 -2 39 -2 55 0 15 2 2 4 -28 4 -30 0 -43 -2 -27 -4z"/>
</g>
</svg>
